<?xml version="1.0" standalone="no"?>
<!DOCTYPE svg PUBLIC "-//W3C//DTD SVG 20010904//EN"
 "http://www.w3.org/TR/2001/REC-SVG-20010904/DTD/svg10.dtd">
<svg version="1.0" xmlns="http://www.w3.org/2000/svg"
 width="96.000000pt" height="96.000000pt" viewBox="0 0 96.000000 96.000000"
 preserveAspectRatio="xMidYMid meet">
<metadata>
Created by potrace 1.14, written by Peter Selinger 2001-2017
</metadata>
<g transform="translate(0.000000,96.000000) scale(0.100000,-0.100000)"
fill="#000000" stroke="none">
<path d="M319 811 c0 -14 -1 -159 -1 -321 0 -342 4 -364 73 -398 63 -31 147
-18 207 33 66 56 67 58 70 398 2 169 0 308 -5 309 -4 0 -29 2 -55 3 -43 2 -48
0 -49 -19 0 -11 -1 -146 -1 -298 0 -153 -5 -278 -9 -278 -5 0 -9 -7 -9 -15 0
-40 -87 -37 -97 3 -3 14 -6 157 -6 317 l0 292 -59 0 c-55 -1 -58 -2 -59 -26z"/>
</g>
</svg>
